<?xml version="1.0" encoding="utf-8" standalone="no"?>
<!DOCTYPE svg PUBLIC "-//W3C//DTD SVG 1.1//EN"
  "http://www.w3.org/Graphics/SVG/1.1/DTD/svg11.dtd">
<svg xmlns:xlink="http://www.w3.org/1999/xlink" width="214.76pt" height="165.821719pt" viewBox="0 0 214.76 165.821719" xmlns="http://www.w3.org/2000/svg" version="1.1">
 <metadata>
  <rdf:RDF xmlns:dc="http://purl.org/dc/elements/1.1/" xmlns:cc="http://creativecommons.org/ns#" xmlns:rdf="http://www.w3.org/1999/02/22-rdf-syntax-ns#">
   <cc:Work>
    <dc:type rdf:resource="http://purl.org/dc/dcmitype/StillImage"/>
    <dc:date>2026-02-13T15:59:03.612944</dc:date>
    <dc:format>image/svg+xml</dc:format>
    <dc:creator>
     <cc:Agent>
      <dc:title>Matplotlib v3.9.4, https://matplotlib.org/</dc:title>
     </cc:Agent>
    </dc:creator>
   </cc:Work>
  </rdf:RDF>
 </metadata>
 <defs>
  <style type="text/css">*{stroke-linejoin: round; stroke-linecap: butt}</style>
 </defs>
 <g id="figure_1">
  <g id="patch_1">
   <path d="M 0 165.821719 
L 214.76 165.821719 
L 214.76 0 
L 0 0 
z
" style="fill: #ffffff"/>
  </g>
  <g id="axes_1">
   <g id="patch_2">
    <path d="M 18.02 140.04 
L 213.32 140.04 
L 213.32 1.44 
L 18.02 1.44 
z
" style="fill: #ffffff"/>
   </g>
   <g id="PathCollection_1">
    <defs>
     <path id="mb2b1671503" d="M -3 3 
L 3 3 
L 3 -3 
L -3 -3 
z
" style="stroke: #00ffff"/>
    </defs>
    <g clip-path="url(#p16d495f3a0)">
     <use xlink:href="#mb2b1671503" x="26.897273" y="132.824796" style="fill: #00ffff; stroke: #00ffff"/>
     <use xlink:href="#mb2b1671503" x="65.376706" y="70.282398" style="fill: #00ffff; stroke: #00ffff"/>
     <use xlink:href="#mb2b1671503" x="77.528106" y="7.74" style="fill: #00ffff; stroke: #00ffff"/>
    </g>
   </g>
   <g id="PathCollection_2">
    <g clip-path="url(#p16d495f3a0)">
     <use xlink:href="#mb2b1671503" x="115.332461" y="70.282398" style="fill: #00ffff; stroke: #00ffff"/>
     <use xlink:href="#mb2b1671503" x="204.442727" y="7.74" style="fill: #00ffff; stroke: #00ffff"/>
    </g>
   </g>
   <g id="matplotlib.axis_1">
    <g id="xtick_1">
     <g id="line2d_1">
      <path d="M 21.496651 140.04 
L 21.496651 1.44 
" clip-path="url(#p16d495f3a0)" style="fill: none; stroke: #b0b0b0; stroke-opacity: 0.3; stroke-width: 0.8; stroke-linecap: square"/>
     </g>
     <g id="line2d_2">
      <defs>
       <path id="m6b35b1cfef" d="M 0 0 
L 0 3 
" style="stroke: #000000; stroke-width: 0.8"/>
      </defs>
      <g>
       <use xlink:href="#m6b35b1cfef" x="21.496651" y="140.04" style="stroke: #000000; stroke-width: 0.8"/>
      </g>
     </g>
     <g id="text_1">
      <!-- 2.0 -->
      <g transform="translate(16.631651 151.550469) scale(0.07 -0.07)">
       <defs>
        <path id="ArialMT-32" d="M 3222 541 
L 3222 0 
L 194 0 
Q 188 203 259 391 
Q 375 700 629 1000 
Q 884 1300 1366 1694 
Q 2113 2306 2375 2664 
Q 2638 3022 2638 3341 
Q 2638 3675 2398 3904 
Q 2159 4134 1775 4134 
Q 1369 4134 1125 3890 
Q 881 3647 878 3216 
L 300 3275 
Q 359 3922 746 4261 
Q 1134 4600 1788 4600 
Q 2447 4600 2831 4234 
Q 3216 3869 3216 3328 
Q 3216 3053 3103 2787 
Q 2991 2522 2730 2228 
Q 2469 1934 1863 1422 
Q 1356 997 1212 845 
Q 1069 694 975 541 
L 3222 541 
z
" transform="scale(0.015625)"/>
        <path id="ArialMT-2e" d="M 581 0 
L 581 641 
L 1222 641 
L 1222 0 
L 581 0 
z
" transform="scale(0.015625)"/>
        <path id="ArialMT-30" d="M 266 2259 
Q 266 3072 433 3567 
Q 600 4063 929 4331 
Q 1259 4600 1759 4600 
Q 2128 4600 2406 4451 
Q 2684 4303 2865 4023 
Q 3047 3744 3150 3342 
Q 3253 2941 3253 2259 
Q 3253 1453 3087 958 
Q 2922 463 2592 192 
Q 2263 -78 1759 -78 
Q 1097 -78 719 397 
Q 266 969 266 2259 
z
M 844 2259 
Q 844 1131 1108 757 
Q 1372 384 1759 384 
Q 2147 384 2411 759 
Q 2675 1134 2675 2259 
Q 2675 3391 2411 3762 
Q 2147 4134 1753 4134 
Q 1366 4134 1134 3806 
Q 844 3388 844 2259 
z
" transform="scale(0.015625)"/>
       </defs>
       <use xlink:href="#ArialMT-32"/>
       <use xlink:href="#ArialMT-2e" x="55.615234"/>
       <use xlink:href="#ArialMT-30" x="83.398438"/>
      </g>
     </g>
    </g>
    <g id="xtick_2">
     <g id="line2d_3">
      <path d="M 55.250539 140.04 
L 55.250539 1.44 
" clip-path="url(#p16d495f3a0)" style="fill: none; stroke: #b0b0b0; stroke-opacity: 0.3; stroke-width: 0.8; stroke-linecap: square"/>
     </g>
     <g id="line2d_4">
      <g>
       <use xlink:href="#m6b35b1cfef" x="55.250539" y="140.04" style="stroke: #000000; stroke-width: 0.8"/>
      </g>
     </g>
     <g id="text_2">
      <!-- 2.5 -->
      <g transform="translate(50.385539 151.550469) scale(0.07 -0.07)">
       <defs>
        <path id="ArialMT-35" d="M 266 1200 
L 856 1250 
Q 922 819 1161 601 
Q 1400 384 1738 384 
Q 2144 384 2425 690 
Q 2706 997 2706 1503 
Q 2706 1984 2436 2262 
Q 2166 2541 1728 2541 
Q 1456 2541 1237 2417 
Q 1019 2294 894 2097 
L 366 2166 
L 809 4519 
L 3088 4519 
L 3088 3981 
L 1259 3981 
L 1013 2750 
Q 1425 3038 1878 3038 
Q 2478 3038 2890 2622 
Q 3303 2206 3303 1553 
Q 3303 931 2941 478 
Q 2500 -78 1738 -78 
Q 1113 -78 717 272 
Q 322 622 266 1200 
z
" transform="scale(0.015625)"/>
       </defs>
       <use xlink:href="#ArialMT-32"/>
       <use xlink:href="#ArialMT-2e" x="55.615234"/>
       <use xlink:href="#ArialMT-35" x="83.398438"/>
      </g>
     </g>
    </g>
    <g id="xtick_3">
     <g id="line2d_5">
      <path d="M 89.004428 140.04 
L 89.004428 1.44 
" clip-path="url(#p16d495f3a0)" style="fill: none; stroke: #b0b0b0; stroke-opacity: 0.3; stroke-width: 0.8; stroke-linecap: square"/>
     </g>
     <g id="line2d_6">
      <g>
       <use xlink:href="#m6b35b1cfef" x="89.004428" y="140.04" style="stroke: #000000; stroke-width: 0.8"/>
      </g>
     </g>
     <g id="text_3">
      <!-- 3.0 -->
      <g transform="translate(84.139428 151.550469) scale(0.07 -0.07)">
       <defs>
        <path id="ArialMT-33" d="M 269 1209 
L 831 1284 
Q 928 806 1161 595 
Q 1394 384 1728 384 
Q 2125 384 2398 659 
Q 2672 934 2672 1341 
Q 2672 1728 2419 1979 
Q 2166 2231 1775 2231 
Q 1616 2231 1378 2169 
L 1441 2663 
Q 1497 2656 1531 2656 
Q 1891 2656 2178 2843 
Q 2466 3031 2466 3422 
Q 2466 3731 2256 3934 
Q 2047 4138 1716 4138 
Q 1388 4138 1169 3931 
Q 950 3725 888 3313 
L 325 3413 
Q 428 3978 793 4289 
Q 1159 4600 1703 4600 
Q 2078 4600 2393 4439 
Q 2709 4278 2876 4000 
Q 3044 3722 3044 3409 
Q 3044 3113 2884 2869 
Q 2725 2625 2413 2481 
Q 2819 2388 3044 2092 
Q 3269 1797 3269 1353 
Q 3269 753 2831 336 
Q 2394 -81 1725 -81 
Q 1122 -81 723 278 
Q 325 638 269 1209 
z
" transform="scale(0.015625)"/>
       </defs>
       <use xlink:href="#ArialMT-33"/>
       <use xlink:href="#ArialMT-2e" x="55.615234"/>
       <use xlink:href="#ArialMT-30" x="83.398438"/>
      </g>
     </g>
    </g>
    <g id="xtick_4">
     <g id="line2d_7">
      <path d="M 122.758317 140.04 
L 122.758317 1.44 
" clip-path="url(#p16d495f3a0)" style="fill: none; stroke: #b0b0b0; stroke-opacity: 0.3; stroke-width: 0.8; stroke-linecap: square"/>
     </g>
     <g id="line2d_8">
      <g>
       <use xlink:href="#m6b35b1cfef" x="122.758317" y="140.04" style="stroke: #000000; stroke-width: 0.8"/>
      </g>
     </g>
     <g id="text_4">
      <!-- 3.5 -->
      <g transform="translate(117.893317 151.550469) scale(0.07 -0.07)">
       <use xlink:href="#ArialMT-33"/>
       <use xlink:href="#ArialMT-2e" x="55.615234"/>
       <use xlink:href="#ArialMT-35" x="83.398438"/>
      </g>
     </g>
    </g>
    <g id="xtick_5">
     <g id="line2d_9">
      <path d="M 156.512205 140.04 
L 156.512205 1.44 
" clip-path="url(#p16d495f3a0)" style="fill: none; stroke: #b0b0b0; stroke-opacity: 0.3; stroke-width: 0.8; stroke-linecap: square"/>
     </g>
     <g id="line2d_10">
      <g>
       <use xlink:href="#m6b35b1cfef" x="156.512205" y="140.04" style="stroke: #000000; stroke-width: 0.8"/>
      </g>
     </g>
     <g id="text_5">
      <!-- 4.0 -->
      <g transform="translate(151.647205 151.550469) scale(0.07 -0.07)">
       <defs>
        <path id="ArialMT-34" d="M 2069 0 
L 2069 1097 
L 81 1097 
L 81 1613 
L 2172 4581 
L 2631 4581 
L 2631 1613 
L 3250 1613 
L 3250 1097 
L 2631 1097 
L 2631 0 
L 2069 0 
z
M 2069 1613 
L 2069 3678 
L 634 1613 
L 2069 1613 
z
" transform="scale(0.015625)"/>
       </defs>
       <use xlink:href="#ArialMT-34"/>
       <use xlink:href="#ArialMT-2e" x="55.615234"/>
       <use xlink:href="#ArialMT-30" x="83.398438"/>
      </g>
     </g>
    </g>
    <g id="xtick_6">
     <g id="line2d_11">
      <path d="M 190.266094 140.04 
L 190.266094 1.44 
" clip-path="url(#p16d495f3a0)" style="fill: none; stroke: #b0b0b0; stroke-opacity: 0.3; stroke-width: 0.8; stroke-linecap: square"/>
     </g>
     <g id="line2d_12">
      <g>
       <use xlink:href="#m6b35b1cfef" x="190.266094" y="140.04" style="stroke: #000000; stroke-width: 0.8"/>
      </g>
     </g>
     <g id="text_6">
      <!-- 4.5 -->
      <g transform="translate(185.401094 151.550469) scale(0.07 -0.07)">
       <use xlink:href="#ArialMT-34"/>
       <use xlink:href="#ArialMT-2e" x="55.615234"/>
       <use xlink:href="#ArialMT-35" x="83.398438"/>
      </g>
     </g>
    </g>
    <g id="text_7">
     <!-- $\beta$ -->
     <g transform="translate(113.35 162.781719) scale(0.08 -0.08)">
      <defs>
       <path id="ArialMT-3b2" d="M 997 422 
L 997 -1272 
L 438 -1272 
L 438 3144 
Q 438 3672 580 3970 
Q 722 4269 1069 4464 
Q 1416 4659 1841 4659 
Q 2469 4659 2792 4298 
Q 3116 3938 3116 3509 
Q 3116 3091 2855 2834 
Q 2594 2578 2256 2519 
Q 2800 2466 3095 2128 
Q 3391 1791 3391 1297 
Q 3391 766 3042 345 
Q 2694 -75 2034 -75 
Q 1359 -75 997 422 
z
M 1494 2700 
Q 2069 2700 2331 2900 
Q 2594 3100 2594 3478 
Q 2594 3784 2370 3990 
Q 2147 4197 1813 4197 
Q 1522 4197 1308 4044 
Q 1094 3891 1045 3703 
Q 997 3516 997 3047 
L 997 1788 
Q 997 1250 1072 997 
Q 1147 744 1394 541 
Q 1641 338 1963 338 
Q 2353 338 2579 605 
Q 2806 872 2806 1266 
Q 2806 1591 2639 1848 
Q 2472 2106 2226 2198 
Q 1981 2291 1575 2291 
L 1494 2291 
L 1494 2700 
z
" transform="scale(0.015625)"/>
      </defs>
      <use xlink:href="#ArialMT-3b2" transform="translate(0 0.203125)"/>
     </g>
    </g>
   </g>
   <g id="matplotlib.axis_2">
    <g id="ytick_1">
     <g id="line2d_13">
      <path d="M 18.02 132.824796 
L 213.32 132.824796 
" clip-path="url(#p16d495f3a0)" style="fill: none; stroke: #b0b0b0; stroke-opacity: 0.3; stroke-width: 0.8; stroke-linecap: square"/>
     </g>
     <g id="line2d_14">
      <defs>
       <path id="m5721211443" d="M 0 0 
L -3 0 
" style="stroke: #000000; stroke-width: 0.8"/>
      </defs>
      <g>
       <use xlink:href="#m5721211443" x="18.02" y="132.824796" style="stroke: #000000; stroke-width: 0.8"/>
      </g>
     </g>
     <g id="text_8">
      <!-- $\mathbb{BT}$ -->
      <g transform="translate(3.05 135.330031) scale(0.07 -0.07)">
       <defs>
        <path id="STIXGeneral-Regular-1d539" d="M 448 4237 
L 2253 4237 
Q 2560 4237 2829 4185 
Q 3098 4134 3347 4012 
Q 3597 3891 3744 3657 
Q 3891 3424 3891 3098 
Q 3891 2810 3763 2576 
Q 3635 2342 3392 2221 
Q 3686 2099 3846 1827 
Q 4006 1555 4006 1222 
Q 4006 0 2483 0 
L 448 0 
L 448 4237 
z
M 3142 3821 
L 3142 2368 
Q 3392 2477 3501 2643 
Q 3610 2810 3610 3085 
Q 3610 3584 3142 3821 
z
M 2861 2362 
L 2861 3878 
Q 2662 3955 2483 3955 
L 1510 3955 
L 1510 2342 
L 2438 2342 
Q 2650 2342 2861 2362 
z
M 3142 2035 
L 3142 333 
Q 3725 544 3725 1210 
Q 3725 1504 3571 1737 
Q 3418 1971 3142 2035 
z
M 2861 333 
L 2861 2042 
Q 2650 2061 2438 2061 
L 1510 2061 
L 1510 282 
L 2490 282 
Q 2669 282 2861 333 
z
M 1229 282 
L 1229 3955 
L 730 3955 
L 730 282 
L 1229 282 
z
" transform="scale(0.015625)"/>
        <path id="STIXGeneral-Regular-1d54b" d="M 3981 3955 
L 2586 3955 
L 2586 0 
L 1523 0 
L 1523 3955 
L 128 3955 
L 128 4237 
L 3981 4237 
L 3981 3955 
z
M 2304 282 
L 2304 3955 
L 1805 3955 
L 1805 282 
L 2304 282 
z
" transform="scale(0.015625)"/>
       </defs>
       <use xlink:href="#STIXGeneral-Regular-1d539" transform="translate(0 0.796875)"/>
       <use xlink:href="#STIXGeneral-Regular-1d54b" transform="translate(67.599991 0.796875)"/>
      </g>
     </g>
    </g>
    <g id="ytick_2">
     <g id="line2d_15">
      <path d="M 18.02 70.282398 
L 213.32 70.282398 
" clip-path="url(#p16d495f3a0)" style="fill: none; stroke: #b0b0b0; stroke-opacity: 0.3; stroke-width: 0.8; stroke-linecap: square"/>
     </g>
     <g id="line2d_16">
      <g>
       <use xlink:href="#m5721211443" x="18.02" y="70.282398" style="stroke: #000000; stroke-width: 0.8"/>
      </g>
     </g>
     <g id="text_9">
      <!-- $\mathbb{BO}$ -->
      <g transform="translate(1.44 72.787632) scale(0.07 -0.07)">
       <defs>
        <path id="STIXGeneral-Regular-1d546" d="M 4576 2125 
Q 4576 1178 3977 544 
Q 3379 -90 2438 -90 
Q 1504 -90 896 550 
Q 288 1190 288 2125 
Q 288 3110 883 3718 
Q 1478 4326 2464 4326 
Q 3418 4326 3997 3705 
Q 4576 3085 4576 2125 
z
M 3782 3507 
L 3782 762 
Q 4294 1274 4294 2125 
Q 4294 2976 3782 3507 
z
M 3501 506 
L 3501 3738 
Q 3123 4045 2438 4045 
Q 2182 4045 1859 3961 
Q 1536 3878 1363 3738 
L 1363 506 
Q 1555 371 1872 281 
Q 2189 192 2438 192 
Q 2694 192 3001 278 
Q 3309 365 3501 506 
z
M 1082 762 
L 1082 3507 
Q 570 2976 570 2125 
Q 570 1306 1082 762 
z
" transform="scale(0.015625)"/>
       </defs>
       <use xlink:href="#STIXGeneral-Regular-1d539" transform="translate(0 0.40625)"/>
       <use xlink:href="#STIXGeneral-Regular-1d546" transform="translate(67.599991 0.40625)"/>
      </g>
     </g>
    </g>
    <g id="ytick_3">
     <g id="line2d_17">
      <path d="M 18.02 7.74 
L 213.32 7.74 
" clip-path="url(#p16d495f3a0)" style="fill: none; stroke: #b0b0b0; stroke-opacity: 0.3; stroke-width: 0.8; stroke-linecap: square"/>
     </g>
     <g id="line2d_18">
      <g>
       <use xlink:href="#m5721211443" x="18.02" y="7.74" style="stroke: #000000; stroke-width: 0.8"/>
      </g>
     </g>
     <g id="text_10">
      <!-- $\mathbb{BI}$ -->
      <g transform="translate(4.52 10.245234) scale(0.07 -0.07)">
       <defs>
        <path id="STIXGeneral-Regular-1d540" d="M 1562 0 
L 499 0 
L 499 4237 
L 1562 4237 
L 1562 0 
z
M 1280 282 
L 1280 3955 
L 781 3955 
L 781 282 
L 1280 282 
z
" transform="scale(0.015625)"/>
       </defs>
       <use xlink:href="#STIXGeneral-Regular-1d539" transform="translate(0 0.796875)"/>
       <use xlink:href="#STIXGeneral-Regular-1d540" transform="translate(67.599991 0.796875)"/>
      </g>
     </g>
    </g>
   </g>
   <g id="line2d_19">
    <path d="M 26.897273 132.824796 
L 28.590612 133.369965 
L 30.283951 133.674538 
L 31.807956 133.735864 
L 33.331961 133.589045 
L 34.855966 133.227686 
L 36.379971 132.645317 
L 37.903976 131.835395 
L 39.427981 130.791306 
L 41.121319 129.348429 
L 42.814658 127.598918 
L 44.507997 125.53338 
L 46.37067 122.884934 
L 48.233343 119.829791 
L 50.096016 116.354985 
L 52.128022 112.070231 
L 54.160029 107.253147 
L 56.192036 101.886235 
L 58.393376 95.431048 
L 60.594717 88.286919 
L 62.965391 79.796193 
L 65.336066 70.450244 
L 67.70674 60.219302 
L 70.246749 48.241187 
L 72.786757 35.174774 
L 75.326765 20.98181 
L 77.528106 7.74 
L 77.528106 7.74 
" clip-path="url(#p16d495f3a0)" style="fill: none; stroke: #add8e6; stroke-opacity: 0.25; stroke-width: 1.2; stroke-linecap: square"/>
   </g>
   <g id="line2d_20">
    <path d="M 115.332461 70.282398 
L 204.442727 7.74 
L 204.442727 7.74 
" clip-path="url(#p16d495f3a0)" style="fill: none; stroke: #add8e6; stroke-opacity: 0.25; stroke-width: 1.2; stroke-linecap: square"/>
   </g>
   <g id="patch_3">
    <path d="M 18.02 140.04 
L 18.02 1.44 
" style="fill: none; stroke: #000000; stroke-width: 0.8; stroke-linejoin: miter; stroke-linecap: square"/>
   </g>
   <g id="patch_4">
    <path d="M 213.32 140.04 
L 213.32 1.44 
" style="fill: none; stroke: #000000; stroke-width: 0.8; stroke-linejoin: miter; stroke-linecap: square"/>
   </g>
   <g id="patch_5">
    <path d="M 18.02 140.04 
L 213.32 140.04 
" style="fill: none; stroke: #000000; stroke-width: 0.8; stroke-linejoin: miter; stroke-linecap: square"/>
   </g>
   <g id="patch_6">
    <path d="M 18.02 1.44 
L 213.32 1.44 
" style="fill: none; stroke: #000000; stroke-width: 0.8; stroke-linejoin: miter; stroke-linecap: square"/>
   </g>
   <g id="text_11">
    <!-- 2.08 -->
    <g transform="translate(33.897273 137.824796) scale(0.07 -0.07)">
     <defs>
      <path id="ArialMT-38" d="M 1131 2484 
Q 781 2613 612 2850 
Q 444 3088 444 3419 
Q 444 3919 803 4259 
Q 1163 4600 1759 4600 
Q 2359 4600 2725 4251 
Q 3091 3903 3091 3403 
Q 3091 3084 2923 2848 
Q 2756 2613 2416 2484 
Q 2838 2347 3058 2040 
Q 3278 1734 3278 1309 
Q 3278 722 2862 322 
Q 2447 -78 1769 -78 
Q 1091 -78 675 323 
Q 259 725 259 1325 
Q 259 1772 486 2073 
Q 713 2375 1131 2484 
z
M 1019 3438 
Q 1019 3113 1228 2906 
Q 1438 2700 1772 2700 
Q 2097 2700 2305 2904 
Q 2513 3109 2513 3406 
Q 2513 3716 2298 3927 
Q 2084 4138 1766 4138 
Q 1444 4138 1231 3931 
Q 1019 3725 1019 3438 
z
M 838 1322 
Q 838 1081 952 856 
Q 1066 631 1291 507 
Q 1516 384 1775 384 
Q 2178 384 2440 643 
Q 2703 903 2703 1303 
Q 2703 1709 2433 1975 
Q 2163 2241 1756 2241 
Q 1359 2241 1098 1978 
Q 838 1716 838 1322 
z
" transform="scale(0.015625)"/>
     </defs>
     <use xlink:href="#ArialMT-32"/>
     <use xlink:href="#ArialMT-2e" x="55.615234"/>
     <use xlink:href="#ArialMT-30" x="83.398438"/>
     <use xlink:href="#ArialMT-38" x="139.013672"/>
    </g>
   </g>
   <g id="text_12">
    <!-- 2.65 -->
    <g transform="translate(72.376706 75.282398) scale(0.07 -0.07)">
     <defs>
      <path id="ArialMT-36" d="M 3184 3459 
L 2625 3416 
Q 2550 3747 2413 3897 
Q 2184 4138 1850 4138 
Q 1581 4138 1378 3988 
Q 1113 3794 959 3422 
Q 806 3050 800 2363 
Q 1003 2672 1297 2822 
Q 1591 2972 1913 2972 
Q 2475 2972 2870 2558 
Q 3266 2144 3266 1488 
Q 3266 1056 3080 686 
Q 2894 316 2569 119 
Q 2244 -78 1831 -78 
Q 1128 -78 684 439 
Q 241 956 241 2144 
Q 241 3472 731 4075 
Q 1159 4600 1884 4600 
Q 2425 4600 2770 4297 
Q 3116 3994 3184 3459 
z
M 888 1484 
Q 888 1194 1011 928 
Q 1134 663 1356 523 
Q 1578 384 1822 384 
Q 2178 384 2434 671 
Q 2691 959 2691 1453 
Q 2691 1928 2437 2201 
Q 2184 2475 1800 2475 
Q 1419 2475 1153 2201 
Q 888 1928 888 1484 
z
" transform="scale(0.015625)"/>
     </defs>
     <use xlink:href="#ArialMT-32"/>
     <use xlink:href="#ArialMT-2e" x="55.615234"/>
     <use xlink:href="#ArialMT-36" x="83.398438"/>
     <use xlink:href="#ArialMT-35" x="139.013672"/>
    </g>
   </g>
   <g id="text_13">
    <!-- 2.83 -->
    <g transform="translate(84.528106 12.74) scale(0.07 -0.07)">
     <use xlink:href="#ArialMT-32"/>
     <use xlink:href="#ArialMT-2e" x="55.615234"/>
     <use xlink:href="#ArialMT-38" x="83.398438"/>
     <use xlink:href="#ArialMT-33" x="139.013672"/>
    </g>
   </g>
   <g id="text_14">
    <!-- 3.39 -->
    <g transform="translate(101.332461 79.282398) scale(0.07 -0.07)">
     <defs>
      <path id="ArialMT-39" d="M 350 1059 
L 891 1109 
Q 959 728 1153 556 
Q 1347 384 1650 384 
Q 1909 384 2104 503 
Q 2300 622 2425 820 
Q 2550 1019 2634 1356 
Q 2719 1694 2719 2044 
Q 2719 2081 2716 2156 
Q 2547 1888 2255 1720 
Q 1963 1553 1622 1553 
Q 1053 1553 659 1965 
Q 266 2378 266 3053 
Q 266 3750 677 4175 
Q 1088 4600 1706 4600 
Q 2153 4600 2523 4359 
Q 2894 4119 3086 3673 
Q 3278 3228 3278 2384 
Q 3278 1506 3087 986 
Q 2897 466 2520 194 
Q 2144 -78 1638 -78 
Q 1100 -78 759 220 
Q 419 519 350 1059 
z
M 2653 3081 
Q 2653 3566 2395 3850 
Q 2138 4134 1775 4134 
Q 1400 4134 1122 3828 
Q 844 3522 844 3034 
Q 844 2597 1108 2323 
Q 1372 2050 1759 2050 
Q 2150 2050 2401 2323 
Q 2653 2597 2653 3081 
z
" transform="scale(0.015625)"/>
     </defs>
     <use xlink:href="#ArialMT-33"/>
     <use xlink:href="#ArialMT-2e" x="55.615234"/>
     <use xlink:href="#ArialMT-33" x="83.398438"/>
     <use xlink:href="#ArialMT-39" x="139.013672"/>
    </g>
   </g>
   <g id="text_15">
    <!-- 4.71 -->
    <g transform="translate(190.442727 16.74) scale(0.07 -0.07)">
     <defs>
      <path id="ArialMT-37" d="M 303 3981 
L 303 4522 
L 3269 4522 
L 3269 4084 
Q 2831 3619 2401 2847 
Q 1972 2075 1738 1259 
Q 1569 684 1522 0 
L 944 0 
Q 953 541 1156 1306 
Q 1359 2072 1739 2783 
Q 2119 3494 2547 3981 
L 303 3981 
z
" transform="scale(0.015625)"/>
      <path id="ArialMT-31" d="M 2384 0 
L 1822 0 
L 1822 3584 
Q 1619 3391 1289 3197 
Q 959 3003 697 2906 
L 697 3450 
Q 1169 3672 1522 3987 
Q 1875 4303 2022 4600 
L 2384 4600 
L 2384 0 
z
" transform="scale(0.015625)"/>
     </defs>
     <use xlink:href="#ArialMT-34"/>
     <use xlink:href="#ArialMT-2e" x="55.615234"/>
     <use xlink:href="#ArialMT-37" x="83.398438"/>
     <use xlink:href="#ArialMT-31" x="139.013672"/>
    </g>
   </g>
  </g>
 </g>
 <defs>
  <clipPath id="p16d495f3a0">
   <rect x="18.02" y="1.44" width="195.3" height="138.6"/>
  </clipPath>
 </defs>
</svg>
